<?xml version="1.0" encoding="UTF-8" standalone="no"?>
<svg width="8px" height="8px" viewBox="0 0 8 8" version="1.1" xmlns="http://www.w3.org/2000/svg" xmlns:xlink="http://www.w3.org/1999/xlink">
    <!-- Generator: Sketch 40.3 (33839) - http://www.bohemiancoding.com/sketch -->
    <title>Assets/PopupDetalles_Cerrar_Activo</title>
    <desc>Created with Sketch.</desc>
    <defs></defs>
    <g id="Page-1" stroke="none" stroke-width="1" fill="none" fill-rule="evenodd">
        <g id="1EDetallesIndexacion" transform="translate(-831.000000, -183.000000)" fill="#4A4A4A">
            <g id="Popup_Detalles" transform="translate(624.000000, 178.000000)">
                <path d="M213.697949,5.22317597 L211,7.9241774 L208.302051,5.22317597 C208.004483,4.92560801 207.521507,4.92560801 207.223176,5.22317597 C206.925608,5.52074392 206.925608,6.00143062 207.223176,6.29899857 L209.921125,9 L207.223176,11.7010014 C206.925608,11.9985694 206.925608,12.4792561 207.223176,12.776824 C207.521507,13.074392 208.004483,13.074392 208.302051,12.776824 L211,10.0758226 L213.697949,12.776824 C213.995517,13.074392 214.478493,13.074392 214.776824,12.776824 C215.074392,12.4792561 215.074392,11.9985694 214.776824,11.7010014 L212.078875,9 L214.776824,6.29899857 C215.074392,6.00143062 215.074392,5.52074392 214.776824,5.22317597 C214.478493,4.92560801 213.995517,4.92560801 213.697949,5.22317597 Z" id="Assets/PopupDetalles_Cerrar_Activo"></path>
            </g>
        </g>
    </g>
</svg>